<svg width="19" height="19" viewBox="0 0 19 19" fill="none" xmlns="http://www.w3.org/2000/svg">
<g clip-path="url(#clip0_120_4029)">
<path d="M16.6502 14.9054C16.7289 15.0066 16.7844 15.1157 16.8158 15.2331C16.8594 15.3957 16.8568 15.5585 16.8081 15.7227C16.7596 15.8865 16.6672 16.0266 16.5317 16.1426L15.8927 16.6805C15.6424 16.8865 15.3821 17.0572 15.1119 17.1926C14.8417 17.3279 14.5608 17.4348 14.2685 17.5132C13.7984 17.6391 13.3133 17.6853 12.8128 17.652C12.3123 17.6186 11.8135 17.5123 11.3165 17.3336C10.8196 17.1549 10.332 16.908 9.85443 16.5937C9.37673 16.279 8.92437 15.9068 8.49808 15.4765C8.23761 15.2443 7.95721 14.975 7.65646 14.6685C7.40134 14.4074 7.10542 14.0919 6.76818 13.7219C6.43105 13.3523 6.07944 12.9355 5.71285 12.4729C5.34108 12.0112 5.0348 11.603 4.79443 11.2482C4.55395 10.8931 4.36165 10.596 4.21837 10.3569C4.05076 10.0777 3.92173 9.83437 3.83138 9.62727C3.60488 9.25837 3.4102 8.88322 3.24777 8.50169C3.08533 8.12016 2.95221 7.73485 2.8481 7.34629C2.71196 6.83821 2.63213 6.33586 2.60796 5.83852C2.58379 5.34118 2.62335 4.86207 2.7258 4.40141C2.82825 3.94076 2.99872 3.5076 3.23722 3.10193C3.47572 2.69626 3.7893 2.33429 4.17774 2.01519L4.80942 1.49059C4.91002 1.41158 5.0176 1.35695 5.13164 1.3264C5.29213 1.28339 5.45352 1.28768 5.61593 1.33967C5.77791 1.39178 5.91474 1.48685 6.02568 1.62551L8.2559 4.40257C8.33502 4.50358 8.38965 4.61117 8.42021 4.7252C8.46513 4.89287 8.46359 5.05941 8.41514 5.22494C8.3667 5.39047 8.2737 5.52992 8.1356 5.64297L6.88582 6.68039C6.72065 6.81744 6.61058 6.98273 6.55499 7.17734C6.49982 7.37183 6.49789 7.56564 6.54972 7.75907C6.5891 7.90605 6.65356 8.0368 6.74363 8.15163L10.5157 12.8685C10.6625 13.0496 10.8293 13.167 11.017 13.2204C11.2042 13.2739 11.3934 13.2752 11.5834 13.2243C11.7131 13.1896 11.8373 13.1246 11.9563 13.0298L13.2061 11.9924C13.3056 11.9141 13.4122 11.8593 13.5262 11.8287C13.6833 11.7866 13.8439 11.7911 14.0075 11.8428C14.1712 11.8945 14.3095 11.9882 14.4221 12.1246L16.6502 14.9054Z" fill="#003AD0"/>
</g>
<defs>
<clipPath id="clip0_120_4029">
<rect width="18" height="18" fill="white" transform="translate(0.355469 0.512024)"/>
</clipPath>
</defs>
</svg>
