<svg width="19" height="19" viewBox="0 0 19 19" fill="none" xmlns="http://www.w3.org/2000/svg">
<g clip-path="url(#clip0_345_167)">
<mask id="path-1-inside-1_345_167" fill="white">
<path d="M18.3455 18.9318V18.9311H18.35V12.3296C18.35 9.10006 17.6548 6.6123 13.8793 6.6123C12.0643 6.6123 10.8463 7.60831 10.349 8.55256H10.2965V6.9138H6.7168V18.9311H10.4443V12.9806C10.4443 11.4138 10.7413 9.89881 12.6815 9.89881C14.5933 9.89881 14.6218 11.6868 14.6218 13.0811V18.9318H18.3455Z"/>
</mask>
<path d="M18.3455 18.9318V18.9311H18.35V12.3296C18.35 9.10006 17.6548 6.6123 13.8793 6.6123C12.0643 6.6123 10.8463 7.60831 10.349 8.55256H10.2965V6.9138H6.7168V18.9311H10.4443V12.9806C10.4443 11.4138 10.7413 9.89881 12.6815 9.89881C14.5933 9.89881 14.6218 11.6868 14.6218 13.0811V18.9318H18.3455Z" fill="#056839"/>
<path d="M18.3455 18.9318V40.2651H39.6789V18.9318H18.3455ZM18.3455 18.9311V-2.40227H-2.98779V18.9311H18.3455ZM18.35 18.9311V40.2644H39.6834V18.9311H18.35ZM10.349 8.55256V29.8859H23.2253L29.225 18.4928L10.349 8.55256ZM10.2965 8.55256H-11.0368V29.8859H10.2965V8.55256ZM10.2965 6.9138H31.6299V-14.4195H10.2965V6.9138ZM6.7168 6.9138V-14.4195H-14.6165V6.9138H6.7168ZM6.7168 18.9311H-14.6165V40.2644H6.7168V18.9311ZM10.4443 18.9311V40.2644H31.7776V18.9311H10.4443ZM14.6218 18.9318H-6.71154V40.2651H14.6218V18.9318ZM39.6789 18.9318V18.9311H-2.98779V18.9318H39.6789ZM18.3455 40.2644H18.35V-2.40227H18.3455V40.2644ZM39.6834 18.9311V12.3296H-2.98329V18.9311H39.6834ZM39.6834 12.3296C39.6834 10.2496 39.6969 3.42641 35.5836 -3.10664C30.0465 -11.901 21.0338 -14.721 13.8793 -14.721V27.9456C12.5542 27.9456 9.98754 27.7349 7.00331 26.3147C3.78576 24.7835 1.20995 22.3781 -0.522597 19.6264C-2.09655 17.1265 -2.62192 14.9135 -2.81112 13.8662C-3.00126 12.8136 -2.98329 12.1763 -2.98329 12.3296H39.6834ZM13.8793 -14.721C3.79033 -14.721 -4.50834 -9.01879 -8.52694 -1.38769L29.225 18.4928C26.2009 24.2354 20.3383 27.9456 13.8793 27.9456V-14.721ZM10.349 -12.7808H10.2965V29.8859H10.349V-12.7808ZM31.6299 8.55256V6.9138H-11.0368V8.55256H31.6299ZM10.2965 -14.4195H6.7168V28.2471H10.2965V-14.4195ZM-14.6165 6.9138V18.9311H28.0501V6.9138H-14.6165ZM6.7168 40.2644H10.4443V-2.40227H6.7168V40.2644ZM31.7776 18.9311V12.9806H-10.889V18.9311H31.7776ZM31.7776 12.9806C31.7776 13.17 31.7762 14.0262 31.5848 15.2189C31.3992 16.3747 30.9205 18.6072 29.5176 21.1519C27.9912 23.9205 25.4967 26.8025 21.8482 28.8229C18.3229 30.7751 14.9698 31.2321 12.6815 31.2321V-11.4345C9.42319 -11.4345 5.30535 -10.7881 1.17862 -8.50286C-3.07123 -6.14945 -6.00377 -2.7908 -7.84691 0.552392C-10.9796 6.23455 -10.889 11.807 -10.889 12.9806H31.7776ZM12.6815 31.2321C9.75445 31.2321 5.60835 30.503 1.5854 27.6965C-2.39188 24.9219 -4.45881 21.3648 -5.46544 18.8235C-6.39789 16.4695 -6.60134 14.5633 -6.66097 13.8969C-6.7242 13.1903 -6.71154 12.6755 -6.71154 13.0811H35.9551C35.9551 12.7895 35.9642 11.5283 35.8359 10.0943C35.7112 8.70056 35.3811 6.08601 34.2026 3.1107C32.9499 -0.0518951 30.5174 -4.14315 25.9971 -7.29657C21.4311 -10.4819 16.5645 -11.4345 12.6815 -11.4345V31.2321ZM-6.71154 13.0811V18.9318H35.9551V13.0811H-6.71154ZM14.6218 40.2651H18.3455V-2.40152H14.6218V40.2651Z" fill="#056839" mask="url(#path-1-inside-1_345_167)"/>
<path d="M0.647095 6.91455H4.37909V18.9318H0.647095V6.91455Z" fill="#056839"/>
<path d="M2.5116 0.931641C1.31835 0.931641 0.350098 1.89989 0.350098 3.09314C0.350098 4.28639 1.31835 5.27489 2.5116 5.27489C3.70485 5.27489 4.6731 4.28639 4.6731 3.09314C4.67235 1.89989 3.7041 0.931641 2.5116 0.931641V0.931641Z" fill="#056839"/>
</g>
<defs>
<clipPath id="clip0_345_167">
<rect width="18" height="18" fill="white" transform="translate(0.350098 0.931641)"/>
</clipPath>
</defs>
</svg>
