<svg width="19" height="19" viewBox="0 0 19 19" fill="none" xmlns="http://www.w3.org/2000/svg">
<g clip-path="url(#clip0_120_4013)">
<path d="M18.1973 4.08795L12.7383 9.51182L18.1973 14.9357C18.296 14.7294 18.3559 14.5014 18.3559 14.2579V4.76573C18.3559 4.5222 18.296 4.29421 18.1973 4.08795Z" fill="#056839"/>
<path d="M16.7735 3.1839H1.93754C1.69402 3.1839 1.46603 3.24377 1.25977 3.34245L8.23698 10.2845C8.8539 10.9014 9.85712 10.9014 10.474 10.2845L17.4513 3.34245C17.245 3.24377 17.017 3.1839 16.7735 3.1839Z" fill="#056839"/>
<path d="M0.514023 4.08795C0.41534 4.29421 0.355469 4.5222 0.355469 4.76573V14.2579C0.355469 14.5014 0.41534 14.7295 0.514023 14.9357L5.97305 9.51182L0.514023 4.08795Z" fill="#056839"/>
<path d="M11.9922 10.2578L11.2197 11.0303C10.1918 12.0582 8.51918 12.0582 7.49125 11.0303L6.71879 10.2578L1.25977 15.6817C1.46603 15.7804 1.69402 15.8402 1.93754 15.8402H16.7735C17.017 15.8402 17.245 15.7804 17.4513 15.6817L11.9922 10.2578Z" fill="#056839"/>
</g>
<defs>
<clipPath id="clip0_120_4013">
<rect width="18" height="18" fill="white" transform="translate(0.355469 0.512024)"/>
</clipPath>
</defs>
</svg>
