<svg width="19" height="16" viewBox="0 0 19 16" fill="none" xmlns="http://www.w3.org/2000/svg">
<path fill-rule="evenodd" clip-rule="evenodd" d="M9.25514 8.9765C8.76943 8.9765 8.28516 8.82916 7.88003 8.5345L4.62375 6.12383C4.38924 5.9505 4.35294 5.63516 4.54099 5.4205C4.73048 5.2065 5.07317 5.1725 5.30696 5.34516L8.56033 7.75316C8.96909 8.0505 9.54483 8.0505 9.9565 7.7505L13.1772 5.3465C13.411 5.17116 13.7537 5.2045 13.9439 5.41916C14.1334 5.63316 14.0978 5.94783 13.8648 6.1225L10.6382 8.5305C10.2302 8.82783 9.74231 8.9765 9.25514 8.9765Z" fill="#056839"/>
<mask id="mask0_50_467" style="mask-type:alpha" maskUnits="userSpaceOnUse" x="1" y="1" width="17" height="14">
<path d="M1.43011 1.3335H17.0398V14.3335H1.43011V1.3335Z" fill="white"/>
</mask>
<g mask="url(#mask0_50_467)">
<path fill-rule="evenodd" clip-rule="evenodd" d="M5.66932 13.3335H12.799C12.8005 13.3322 12.8063 13.3335 12.8106 13.3335C13.639 13.3335 14.3738 13.0615 14.9372 12.5448C15.5913 11.9468 15.9507 11.0875 15.9507 10.1255V5.54683C15.9507 3.68483 14.625 2.3335 12.799 2.3335H5.67077C3.84479 2.3335 2.51905 3.68483 2.51905 5.54683V10.1255C2.51905 11.0875 2.87916 11.9468 3.5326 12.5448C4.096 13.0615 4.83148 13.3335 5.65916 13.3335H5.66932ZM5.65698 14.3335C4.5367 14.3335 3.53623 13.9602 2.76372 13.2535C1.90337 12.4655 1.42999 11.3548 1.42999 10.1255V5.54683C1.42999 3.14483 3.25307 1.3335 5.67077 1.3335H12.799C15.2167 1.3335 17.0398 3.14483 17.0398 5.54683V10.1255C17.0398 11.3548 16.5664 12.4655 15.7061 13.2535C14.9343 13.9595 13.9331 14.3335 12.8106 14.3335H12.799H5.67077H5.65698Z" fill="#056839"/>
</g>
</svg>
