<svg width="19" height="19" viewBox="0 0 19 19" fill="none" xmlns="http://www.w3.org/2000/svg">
<g clip-path="url(#clip0_345_40)">
<path d="M12.3771 2.43497V2.43164H13.2212L13.5295 2.4949C13.7351 2.53597 13.9218 2.5898 14.0895 2.65639C14.2572 2.72298 14.4195 2.80068 14.5764 2.88947C14.7333 2.97825 14.8756 3.06872 15.0033 3.16083C15.1299 3.25185 15.2435 3.34841 15.3442 3.45051C15.4437 3.55373 15.599 3.58036 15.81 3.53042C16.021 3.48048 16.2482 3.4111 16.4917 3.32232C16.7351 3.23353 16.9759 3.13364 17.2139 3.02265C17.452 2.91166 17.597 2.84119 17.6489 2.81122C17.6998 2.78015 17.7268 2.76351 17.7301 2.76127L17.7333 2.75628L17.7496 2.74796L17.7658 2.73963L17.782 2.73131L17.7982 2.72298L17.8015 2.71799L17.8064 2.71466L17.8113 2.71133L17.8145 2.70634L17.8307 2.70134L17.8469 2.69801L17.8437 2.72298L17.8388 2.74796L17.8307 2.77293L17.8226 2.7979L17.8145 2.81455L17.8064 2.8312L17.7982 2.85617C17.7928 2.87282 17.7874 2.89501 17.782 2.92276C17.7766 2.95051 17.7252 3.06149 17.6278 3.25573C17.5304 3.44996 17.4087 3.64696 17.2626 3.84674C17.1166 4.04651 16.9856 4.19745 16.8699 4.29957C16.753 4.40278 16.6756 4.47492 16.6377 4.51599C16.5999 4.55816 16.5539 4.597 16.4998 4.63253L16.4186 4.68747L16.4024 4.69579L16.3862 4.70412L16.3829 4.70911L16.3781 4.71244L16.3732 4.71577L16.3699 4.72076L16.3537 4.72909L16.3375 4.73741L16.3342 4.74241L16.3294 4.74574L16.3245 4.74907L16.3212 4.75406L16.318 4.75905L16.3131 4.76238L16.3083 4.76571L16.305 4.77071H16.3862L16.8406 4.67082C17.1436 4.60423 17.4331 4.52377 17.709 4.42942L18.1472 4.27959L18.1959 4.26294L18.2203 4.25462L18.2365 4.24629L18.2527 4.23797L18.2689 4.22964L18.2852 4.22132L18.3176 4.21632L18.3501 4.21299V4.24629L18.342 4.24962L18.3339 4.25462L18.3306 4.25961L18.3258 4.26294L18.3209 4.26627L18.3176 4.27126L18.3144 4.27626L18.3095 4.27959L18.3047 4.28292L18.3014 4.28791L18.2982 4.29291L18.2933 4.29624L18.2852 4.31288L18.2771 4.32953L18.2722 4.33286C18.27 4.33619 18.2013 4.43052 18.0661 4.61588C17.9308 4.80234 17.8578 4.89667 17.8469 4.8989C17.8361 4.90223 17.821 4.91888 17.8015 4.94884C17.7831 4.97991 17.6684 5.10367 17.4574 5.3201C17.2464 5.53652 17.0397 5.72908 16.8374 5.89779C16.634 6.0676 16.5312 6.27625 16.529 6.52376C16.5258 6.77015 16.5133 7.04874 16.4917 7.3595C16.47 7.67027 16.4295 8.006 16.3699 8.36671C16.3104 8.72743 16.2185 9.13531 16.094 9.59035C15.9696 10.0454 15.8181 10.4894 15.6395 10.9222C15.461 11.3551 15.2744 11.7435 15.0796 12.0876C14.8848 12.4316 14.7063 12.723 14.544 12.9616C14.3817 13.2002 14.2167 13.425 14.0489 13.6359C13.8812 13.8467 13.6691 14.0843 13.4127 14.3484C13.1552 14.6114 13.0145 14.7557 12.9907 14.7813C12.9658 14.8057 12.8598 14.8967 12.6726 15.0543C12.4864 15.213 12.2863 15.3717 12.072 15.5304C11.8588 15.688 11.663 15.8195 11.4845 15.925C11.3059 16.0304 11.0906 16.1508 10.8385 16.2862C10.5874 16.4228 10.3158 16.5493 10.0237 16.6658C9.73152 16.7824 9.42314 16.8906 9.09852 16.9905C8.7739 17.0904 8.46011 17.1681 8.15713 17.2235C7.85417 17.279 7.51061 17.3262 7.12647 17.365L6.55028 17.4233V17.4316H5.49527V17.4233L5.35731 17.415C5.26535 17.4094 5.1896 17.4039 5.13008 17.3983C5.07058 17.3928 4.84604 17.3623 4.4565 17.3068C4.06696 17.2513 3.76128 17.1958 3.53946 17.1403C3.31765 17.0848 2.98761 16.9794 2.54938 16.824C2.11114 16.6686 1.73621 16.5115 1.42458 16.3528C1.11403 16.1952 0.919264 16.0953 0.840269 16.0532C0.762361 16.0121 0.674714 15.9611 0.577329 15.9L0.431252 15.8084L0.428022 15.8035L0.423136 15.8001L0.418267 15.7968L0.415021 15.7918L0.39879 15.7835L0.382559 15.7751L0.379329 15.7702L0.374444 15.7668L0.369575 15.7635L0.366328 15.7585L0.363099 15.7535L0.358213 15.7502H0.350098V15.7169L0.366328 15.7202L0.382559 15.7252L0.455598 15.7335C0.504291 15.7391 0.636848 15.7474 0.853254 15.7585C1.06968 15.7696 1.2996 15.7696 1.54306 15.7585C1.78653 15.7474 2.03541 15.7224 2.28968 15.6836C2.54397 15.6447 2.84424 15.5782 3.19049 15.4838C3.53676 15.3895 3.85489 15.2774 4.14488 15.1475C4.43379 15.0166 4.63937 14.9189 4.76166 14.8545C4.88284 14.7912 5.06787 14.6736 5.31673 14.5016L5.69004 14.2435L5.69329 14.2385L5.69816 14.2352L5.70304 14.2319L5.70627 14.2269L5.70952 14.2219L5.71439 14.2185L5.71928 14.2152L5.72251 14.2102L5.73874 14.2052L5.75497 14.2019L5.75821 14.1852L5.76308 14.1686L5.76797 14.1653L5.7712 14.1603L5.64135 14.152C5.55479 14.1464 5.47093 14.1408 5.38977 14.1353C5.30862 14.1298 5.18148 14.1048 5.00835 14.0604C4.83523 14.016 4.64858 13.9494 4.44838 13.8606C4.24821 13.7718 4.05344 13.6664 3.86407 13.5443C3.67473 13.4222 3.53783 13.3206 3.45343 13.2396C3.37012 13.1597 3.26191 13.0465 3.12882 12.9C2.99681 12.7524 2.88211 12.6009 2.78472 12.4455C2.68734 12.2901 2.59429 12.1109 2.50557 11.9078L2.37084 11.6048L2.36272 11.5798L2.35461 11.5548L2.34974 11.5382L2.34649 11.5215L2.37084 11.5249L2.39518 11.5299L2.57372 11.5548C2.69276 11.5715 2.87941 11.577 3.13369 11.5715C3.38797 11.5659 3.5638 11.5548 3.66119 11.5382C3.75857 11.5215 3.81809 11.5104 3.83973 11.5049L3.87219 11.4966L3.91277 11.4882L3.95334 11.4799L3.95659 11.4749L3.96146 11.4716L3.96634 11.4683L3.96957 11.4633L3.93711 11.4549L3.90465 11.4466L3.87219 11.4383L3.83973 11.43L3.80727 11.4217C3.78563 11.4161 3.74776 11.405 3.69365 11.3884C3.63955 11.3717 3.49348 11.3107 3.25542 11.2052C3.01738 11.0998 2.82801 10.9971 2.68734 10.8972C2.54632 10.7971 2.41185 10.6875 2.28481 10.5693C2.15821 10.4494 2.01918 10.2951 1.86768 10.1064C1.7162 9.91777 1.58095 9.69857 1.46191 9.44884C1.34289 9.19912 1.25362 8.9605 1.1941 8.73297C1.13482 8.50678 1.09571 8.27553 1.07726 8.04207L1.04802 7.69246L1.06425 7.69579L1.08049 7.70079L1.09672 7.70911L1.11295 7.71743L1.12918 7.72576L1.14541 7.73408L1.39699 7.85062C1.56472 7.92832 1.77301 7.99491 2.02187 8.0504C2.27076 8.10589 2.41953 8.13642 2.46822 8.14196L2.54126 8.15029H2.68734L2.68411 8.14529L2.67922 8.14196L2.67435 8.13863L2.67111 8.13364L2.66788 8.12864L2.66299 8.12531L2.65812 8.12198L2.65488 8.11699L2.63865 8.10867L2.62242 8.10034L2.61919 8.09535L2.6143 8.09202L2.60943 8.08869L2.60618 8.08369L2.58995 8.07537L2.57372 8.06705L2.57049 8.06205C2.56725 8.05982 2.52071 8.02431 2.43089 7.9555C2.34216 7.88558 2.24911 7.79513 2.15172 7.68414C2.05434 7.57314 1.95695 7.45661 1.85957 7.33453C1.762 7.21217 1.6751 7.08125 1.59987 6.94329C1.52414 6.80457 1.44406 6.62808 1.35966 6.41388C1.27634 6.20079 1.21304 5.98602 1.16975 5.7696C1.12648 5.55317 1.10214 5.33953 1.09672 5.12864C1.09131 4.91776 1.09672 4.73741 1.11295 4.58758C1.12918 4.43775 1.16164 4.26848 1.21033 4.07981C1.25902 3.89114 1.32937 3.69136 1.42133 3.48048L1.5593 3.16416L1.56741 3.13919L1.57553 3.11422L1.58041 3.11089L1.58364 3.10589L1.58689 3.1009L1.59176 3.09757L1.59664 3.1009L1.59987 3.10589L1.60312 3.11089L1.60799 3.11422L1.61287 3.11755L1.6161 3.12254L1.61935 3.12753L1.62422 3.13086L1.63233 3.14751L1.64045 3.16416L1.64533 3.16749L1.64856 3.17248L1.86768 3.42221C2.01376 3.58869 2.18689 3.7746 2.38707 3.97992C2.58726 4.18524 2.69816 4.29179 2.7198 4.29957C2.74145 4.30844 2.76849 4.33396 2.80095 4.37615C2.83342 4.41722 2.94163 4.51544 3.12557 4.67082C3.30953 4.8262 3.55028 5.00656 3.84784 5.21188C4.14542 5.41721 4.47544 5.61977 4.83792 5.81954C5.20042 6.01932 5.58996 6.19967 6.00654 6.36061C6.42314 6.52155 6.7153 6.62698 6.88301 6.67692C7.05074 6.72687 7.33747 6.79068 7.74324 6.86838C8.14902 6.94607 8.45471 6.99602 8.66029 7.01821C8.86588 7.0404 9.00656 7.05317 9.08229 7.0565L9.1959 7.05983L9.19268 7.03486L9.18779 7.00989L9.15533 6.80179C9.13369 6.66306 9.12287 6.46882 9.12287 6.2191C9.12287 5.96938 9.14181 5.73908 9.17967 5.5282C9.21756 5.31732 9.27436 5.10367 9.3501 4.88725C9.42585 4.67082 9.49997 4.49711 9.57246 4.36616C9.64605 4.2363 9.74235 4.08813 9.86137 3.92165C9.98041 3.75517 10.1346 3.58314 10.3239 3.40556C10.5133 3.22797 10.7297 3.06981 10.9732 2.93109C11.2166 2.79236 11.4412 2.68691 11.6468 2.61477C11.8524 2.54263 12.0255 2.49545 12.1661 2.47326C12.3068 2.45107 12.3771 2.4383 12.3771 2.43497V2.43497Z" fill="#056839" stroke="#056839" stroke-width="1.12646"/>
</g>
<defs>
<clipPath id="clip0_345_40">
<rect width="18" height="18" fill="white" transform="translate(0.350098 0.931641)"/>
</clipPath>
</defs>
</svg>
