<svg width="19" height="19" viewBox="0 0 19 19" fill="none" xmlns="http://www.w3.org/2000/svg">
<g clip-path="url(#clip0_345_150)">
<path fill-rule="evenodd" clip-rule="evenodd" d="M3.45515 1.40418C4.02692 1.1817 4.68165 1.02978 5.63979 0.986145C6.59995 0.941793 6.90697 0.931641 9.35118 0.931641C11.7954 0.931641 12.1022 0.942513 13.0618 0.986145C14.0193 1.02906 14.6736 1.1817 15.2465 1.40418C15.8376 1.63393 16.34 1.94137 16.8401 2.44227C17.3403 2.94318 17.6479 3.4448 17.8783 4.03657C18.1008 4.60832 18.2527 5.26294 18.2963 6.22112C18.3399 7.18074 18.3501 7.48753 18.3501 9.93164C18.3501 12.3758 18.3399 12.6818 18.2963 13.6422C18.2534 14.6003 18.1008 15.2546 17.8783 15.8267C17.6479 16.4185 17.3411 16.9209 16.8401 17.421C16.3392 17.9211 15.8376 18.2287 15.2458 18.4591C14.6736 18.6816 14.0193 18.8335 13.0611 18.8771C12.1015 18.9215 11.7947 18.9316 9.35046 18.9316C6.90625 18.9316 6.59995 18.9208 5.63979 18.8771C4.68165 18.8335 4.028 18.6816 3.45515 18.4591C2.863 18.2287 2.36164 17.9209 1.86079 17.421C1.35994 16.9211 1.05241 16.4185 0.822652 15.8267C0.600163 15.2546 0.448238 14.6003 0.404604 13.6422C0.36025 12.6825 0.350098 12.3758 0.350098 9.93164C0.350098 7.48753 0.36025 7.18074 0.404604 6.22112C0.448238 5.26302 0.600163 4.60868 0.822652 4.03657C1.05241 3.44444 1.35987 2.94238 1.86079 2.44227C2.36171 1.94216 2.863 1.63393 3.45515 1.40418ZM9.34955 6.43164C7.41675 6.43164 5.8501 7.99874 5.8501 9.93164C5.8501 11.8645 7.41675 13.4316 9.34955 13.4316C11.2827 13.4316 12.8501 11.8642 12.8501 9.93164C12.8501 7.99905 11.2827 6.43164 9.34955 6.43164ZM3.8501 9.93164C3.8501 6.89457 6.31178 4.43164 9.34955 4.43164C12.387 4.43164 14.8501 6.89425 14.8501 9.93164C14.8501 12.969 12.387 15.4316 9.34955 15.4316C6.31178 15.4316 3.8501 12.9687 3.8501 9.93164Z" fill="#056839"/>
</g>
<defs>
<clipPath id="clip0_345_150">
<rect width="18" height="18" fill=" " transform="translate(0.350098 0.931641)"/>
</clipPath>
</defs>
</svg>
