<svg width="19" height="18" viewBox="0 0 19 18" fill="none" xmlns="http://www.w3.org/2000/svg">
<g clip-path="url(#clip0_508_4568)">
<mask id="path-1-inside-1_508_4568" fill="white">
<path d="M18.452 17.9999V17.9992H18.4565V11.3977C18.4565 8.16817 17.7612 5.68042 13.9857 5.68042C12.1707 5.68042 10.9527 6.67642 10.4555 7.62067H10.403V5.98192H6.82324V17.9992H10.5507V12.0487C10.5507 10.4819 10.8477 8.96692 12.788 8.96692C14.6997 8.96692 14.7282 10.7549 14.7282 12.1492V17.9999H18.452Z"/>
</mask>
<path d="M18.452 17.9999V17.9992H18.4565V11.3977C18.4565 8.16817 17.7612 5.68042 13.9857 5.68042C12.1707 5.68042 10.9527 6.67642 10.4555 7.62067H10.403V5.98192H6.82324V17.9992H10.5507V12.0487C10.5507 10.4819 10.8477 8.96692 12.788 8.96692C14.6997 8.96692 14.7282 10.7549 14.7282 12.1492V17.9999H18.452Z" fill="#131316"/>
<path d="M18.452 17.9999V39.3333H39.7853V17.9999H18.452ZM18.452 17.9992V-3.33416H-2.88134V17.9992H18.452ZM18.4565 17.9992V39.3325H39.7898V17.9992H18.4565ZM10.4555 7.62067V28.954H23.3318L29.3315 17.5609L10.4555 7.62067ZM10.403 7.62067H-10.9303V28.954H10.403V7.62067ZM10.403 5.98192H31.7363V-15.3514H10.403V5.98192ZM6.82324 5.98192V-15.3514H-14.5101V5.98192H6.82324ZM6.82324 17.9992H-14.5101V39.3325H6.82324V17.9992ZM10.5507 17.9992V39.3325H31.8841V17.9992H10.5507ZM14.7282 17.9999H-6.60509V39.3333H14.7282V17.9999ZM39.7853 17.9999V17.9992H-2.88134V17.9999H39.7853ZM18.452 39.3325H18.4565V-3.33416H18.452V39.3325ZM39.7898 17.9992V11.3977H-2.87684V17.9992H39.7898ZM39.7898 11.3977C39.7898 9.31775 39.8033 2.49452 35.69 -4.03852C30.1529 -12.8329 21.1403 -15.6529 13.9857 -15.6529V27.0138C12.6606 27.0138 10.094 26.803 7.10975 25.3828C3.89221 23.8516 1.3164 21.4462 -0.416152 18.6945C-1.9901 16.1946 -2.51548 13.9817 -2.70468 12.9343C-2.89482 11.8817 -2.87684 11.2444 -2.87684 11.3977H39.7898ZM13.9857 -15.6529C3.89677 -15.6529 -4.40189 -9.95067 -8.42049 -2.31957L29.3315 17.5609C26.3074 23.3035 20.4447 27.0138 13.9857 27.0138V-15.6529ZM10.4555 -13.7127H10.403V28.954H10.4555V-13.7127ZM31.7363 7.62067V5.98192H-10.9303V7.62067H31.7363ZM10.403 -15.3514H6.82324V27.3153H10.403V-15.3514ZM-14.5101 5.98192V17.9992H28.1566V5.98192H-14.5101ZM6.82324 39.3325H10.5507V-3.33416H6.82324V39.3325ZM31.8841 17.9992V12.0487H-10.7826V17.9992H31.8841ZM31.8841 12.0487C31.8841 12.2381 31.8826 13.0943 31.6912 14.287C31.5057 15.4428 31.0269 17.6753 29.624 20.22C28.0976 22.9886 25.6032 25.8706 21.9547 27.891C18.4293 29.8432 15.0762 30.3003 12.788 30.3003V-12.3664C9.52964 -12.3664 5.4118 -11.72 1.28506 -9.43475C-2.96478 -7.08134 -5.89732 -3.72269 -7.74047 -0.379492C-10.8731 5.30267 -10.7826 10.8752 -10.7826 12.0487H31.8841ZM12.788 30.3003C9.8609 30.3003 5.71479 29.5711 1.69185 26.7646C-2.28543 23.99 -4.35237 20.4329 -5.359 17.8916C-6.29144 15.5376 -6.49489 13.6314 -6.55452 12.965C-6.61775 12.2584 -6.60509 11.7436 -6.60509 12.1492H36.0616C36.0616 11.8576 36.0707 10.5965 35.9424 9.16245C35.8176 7.76867 35.4876 5.15412 34.309 2.17882C33.0563 -0.98378 30.6238 -5.07503 26.1035 -8.22846C21.5375 -11.4137 16.671 -12.3664 12.788 -12.3664V30.3003ZM-6.60509 12.1492V17.9999H36.0616V12.1492H-6.60509ZM14.7282 39.3333H18.452V-3.33341H14.7282V39.3333Z" fill="#131316" mask="url(#path-1-inside-1_508_4568)"/>
<path d="M0.75293 5.98279H4.48493V18H0.75293V5.98279Z" fill="#131316"/>
<path d="M2.61755 0C1.4243 0 0.456055 0.96825 0.456055 2.1615C0.456055 3.35475 1.4243 4.34325 2.61755 4.34325C3.8108 4.34325 4.77905 3.35475 4.77905 2.1615C4.7783 0.96825 3.81005 0 2.61755 0V0Z" fill="#131316"/>
</g>
<defs>
<clipPath id="clip0_508_4568">
<rect width="18" height="18" fill="white" transform="translate(0.456055)"/>
</clipPath>
</defs>
</svg>
