<svg width="19" height="19" viewBox="0 0 19 19" fill="none" xmlns="http://www.w3.org/2000/svg">
<g clip-path="url(#clip0_120_4035)">
<path d="M14.6836 4.01039C13.5912 2.12517 11.6509 0.973418 9.49314 0.929402C9.40103 0.927504 9.30832 0.927504 9.21617 0.929402C7.0585 0.973418 5.11815 2.12517 4.02571 4.01039C2.90907 5.93738 2.87852 8.25206 3.94397 10.2022L8.40751 18.3721C8.40951 18.3757 8.41152 18.3793 8.41359 18.3829C8.60998 18.7242 8.96178 18.928 9.35473 18.928C9.74763 18.928 10.0994 18.7242 10.2958 18.3829C10.2979 18.3793 10.2999 18.3757 10.3019 18.3721L14.7654 10.2022C15.8308 8.25206 15.8002 5.93738 14.6836 4.01039ZM9.35466 9.08425C7.95892 9.08425 6.82341 7.94873 6.82341 6.553C6.82341 5.15726 7.95892 4.02175 9.35466 4.02175C10.7504 4.02175 11.8859 5.15726 11.8859 6.553C11.8859 7.94873 10.7504 9.08425 9.35466 9.08425Z" fill="#056839"/>
</g>
<defs>
<clipPath id="clip0_120_4035">
<rect width="18" height="18" fill="white" transform="translate(0.355469 0.92804)"/>
</clipPath>
</defs>
</svg>
