<svg width="17" height="16" viewBox="0 0 17 16" fill="none" xmlns="http://www.w3.org/2000/svg">
<path fill-rule="evenodd" clip-rule="evenodd" d="M5.14354 1.33386C5.8882 1.34386 6.41887 1.90186 7.0902 2.60786C7.2562 2.78186 7.43554 2.97186 7.6362 3.17186C8.60887 4.14519 8.3322 4.93919 8.10887 5.57652C7.8662 6.27186 7.6562 6.87186 8.91354 8.12919C10.1709 9.38652 10.7702 9.17652 11.4649 8.93186C12.1029 8.70919 12.8949 8.43052 13.8695 9.40386C14.0675 9.60186 14.2542 9.77919 14.4275 9.94386C15.1362 10.6185 15.6962 11.1512 15.7056 11.8979C15.7129 12.5339 15.3262 13.1832 14.3715 14.1379L13.9489 13.8512L14.3069 14.1999C14.0955 14.4165 13.5335 14.9939 12.4329 15.0005H12.4129C10.7515 15.0005 8.58554 13.6779 5.97487 11.0679C3.35354 8.44719 2.02887 6.27452 2.03881 4.60986C2.04487 3.50986 2.62154 2.94652 2.8382 2.73519L2.8567 2.71499L2.90154 2.66986C3.8582 1.71319 4.51554 1.31986 5.14354 1.33386ZM5.13087 2.33386H5.12554C4.82616 2.33386 4.37151 2.63386 3.73742 3.24979L3.61009 3.37483L3.61154 3.37452C3.61234 3.37452 3.60066 3.387 3.58211 3.40592L3.53754 3.45052C3.3762 3.60719 3.0422 3.93319 3.03884 4.61519C3.03354 5.56919 3.66087 7.34052 6.68154 10.3605C9.68754 13.3659 11.4562 14.0005 12.4129 14.0005H12.4269C13.1089 13.9965 13.4342 13.6625 13.5909 13.5019C13.6382 13.4532 13.6769 13.4165 13.7042 13.3945C14.3689 12.7259 14.7089 12.2292 14.7056 11.9099C14.7015 11.5845 14.2969 11.2005 13.7375 10.6679C13.5595 10.4992 13.3662 10.3145 13.1622 10.1105C12.6329 9.58319 12.3722 9.67319 11.7955 9.87586C10.9989 10.1552 9.90754 10.5379 8.20687 8.83586C6.50554 7.13519 6.88687 6.04386 7.16487 5.24652C7.3662 4.67052 7.4582 4.40852 6.92954 3.87919C6.72287 3.67252 6.53687 3.47652 6.36554 3.29652C5.8362 2.74052 5.4542 2.33852 5.13087 2.33386ZM10.8696 3.70552C12.2569 3.97486 13.3283 5.04552 13.5983 6.43352C13.6509 6.70552 13.4743 6.96752 13.2036 7.02019C13.1709 7.02619 13.1389 7.02952 13.1069 7.02952C12.8723 7.02952 12.6636 6.86419 12.6169 6.62552C12.4249 5.63886 11.6643 4.87819 10.6789 4.68686C10.4076 4.63419 10.2309 4.37219 10.2836 4.10086C10.3363 3.82952 10.6029 3.65219 10.8696 3.70552ZM10.8297 1.33766C13.5483 1.63966 15.6597 3.74832 15.9643 6.46632C15.995 6.74099 15.7977 6.98832 15.5237 7.01899C15.505 7.02099 15.4857 7.02232 15.467 7.02232C15.2157 7.02232 14.9997 6.83366 14.971 6.57832C14.7183 4.32766 12.9703 2.58099 10.719 2.33099C10.445 2.30032 10.247 2.05366 10.2777 1.77899C10.3077 1.50499 10.5523 1.30299 10.8297 1.33766Z" fill="#056839"/>
</svg>
